<svg xmlns="http://www.w3.org/2000/svg" xmlns:xlink="http://www.w3.org/1999/xlink" viewBox="0 0 902.04 265.73"><defs><style>.cls-1{fill:none;}.cls-2{clip-path:url(#clip-path);}.cls-3{fill:#31333b;}</style><clipPath id="clip-path" transform="translate(-2.56 20.43)"><rect class="cls-1" width="953.52" height="239.75"/></clipPath></defs><g id="Layer_2" data-name="Layer 2"><g id="Layer_1-2" data-name="Layer 1"><g class="cls-2"><g id="_Grid_Repeat_" data-name="&lt;Grid Repeat&gt;"><path class="cls-3" d="M70.45,10.43V16.6H39.59V47.46H33.42V16.6H2.56V10.43H33.42V-20.43h6.17V10.43Z" transform="translate(-2.56 20.43)"/></g><g id="_Grid_Repeat_2" data-name="&lt;Grid Repeat&gt;"><path class="cls-3" d="M308.78,10.43V16.6H277.92V47.46h-6.17V16.6H240.89V10.43h30.86V-20.43h6.17V10.43Z" transform="translate(-2.56 20.43)"/></g><g id="_Grid_Repeat_3" data-name="&lt;Grid Repeat&gt;"><path class="cls-3" d="M547.11,10.43V16.6H516.25V47.46h-6.17V16.6H479.22V10.43h30.86V-20.43h6.17V10.43Z" transform="translate(-2.56 20.43)"/></g><g id="_Grid_Repeat_4" data-name="&lt;Grid Repeat&gt;"><path class="cls-3" d="M785.44,10.43V16.6H754.58V47.46h-6.17V16.6H717.55V10.43h30.86V-20.43h6.17V10.43Z" transform="translate(-2.56 20.43)"/></g><g id="_Grid_Repeat_5" data-name="&lt;Grid Repeat&gt;"><path class="cls-3" d="M70.45,142.32v6.17H39.59v30.86H33.42V148.49H2.56v-6.17H33.42V111.46h6.17v30.86Z" transform="translate(-2.56 20.43)"/></g><g id="_Grid_Repeat_6" data-name="&lt;Grid Repeat&gt;"><path class="cls-3" d="M189.62,76.38v6.17H158.76v30.86h-6.17V82.55H121.73V76.38h30.86V45.52h6.17V76.38Z" transform="translate(-2.56 20.43)"/></g><g id="_Grid_Repeat_7" data-name="&lt;Grid Repeat&gt;"><path class="cls-3" d="M308.78,142.32v6.17H277.92v30.86h-6.17V148.49H240.89v-6.17h30.86V111.46h6.17v30.86Z" transform="translate(-2.56 20.43)"/></g><g id="_Grid_Repeat_8" data-name="&lt;Grid Repeat&gt;"><path class="cls-3" d="M428,76.38v6.17H397.09v30.86h-6.17V82.55H360.06V76.38h30.86V45.52h6.17V76.38Z" transform="translate(-2.56 20.43)"/></g><g id="_Grid_Repeat_9" data-name="&lt;Grid Repeat&gt;"><path class="cls-3" d="M547.11,142.32v6.17H516.25v30.86h-6.17V148.49H479.22v-6.17h30.86V111.46h6.17v30.86Z" transform="translate(-2.56 20.43)"/></g><g id="_Grid_Repeat_10" data-name="&lt;Grid Repeat&gt;"><path class="cls-3" d="M666.28,76.38v6.17H635.42v30.86h-6.17V82.55H598.39V76.38h30.86V45.52h6.17V76.38Z" transform="translate(-2.56 20.43)"/></g><g id="_Grid_Repeat_11" data-name="&lt;Grid Repeat&gt;"><path class="cls-3" d="M785.44,142.32v6.17H754.58v30.86h-6.17V148.49H717.55v-6.17h30.86V111.46h6.17v30.86Z" transform="translate(-2.56 20.43)"/></g><g id="_Grid_Repeat_12" data-name="&lt;Grid Repeat&gt;"><path class="cls-3" d="M904.61,76.38v6.17H873.75v30.86h-6.17V82.55H836.72V76.38h30.86V45.52h6.17V76.38Z" transform="translate(-2.56 20.43)"/></g><g id="_Grid_Repeat_13" data-name="&lt;Grid Repeat&gt;"><path class="cls-3" d="M189.62,208.27v6.17H158.76V245.3h-6.17V214.44H121.73v-6.17h30.86V177.41h6.17v30.86Z" transform="translate(-2.56 20.43)"/></g><g id="_Grid_Repeat_14" data-name="&lt;Grid Repeat&gt;"><path class="cls-3" d="M428,208.27v6.17H397.09V245.3h-6.17V214.44H360.06v-6.17h30.86V177.41h6.17v30.86Z" transform="translate(-2.56 20.43)"/></g><g id="_Grid_Repeat_15" data-name="&lt;Grid Repeat&gt;"><path class="cls-3" d="M666.28,208.27v6.17H635.42V245.3h-6.17V214.44H598.39v-6.17h30.86V177.41h6.17v30.86Z" transform="translate(-2.56 20.43)"/></g><g id="_Grid_Repeat_16" data-name="&lt;Grid Repeat&gt;"><path class="cls-3" d="M904.61,208.27v6.17H873.75V245.3h-6.17V214.44H836.72v-6.17h30.86V177.41h6.17v30.86Z" transform="translate(-2.56 20.43)"/></g></g></g></g></svg>